<svg xmlns="http://www.w3.org/2000/svg" width="600" height="600" viewBox="0 0 600 600"><rect width="100%" height="100%" fill="#16161f"/><path fill="#c9a84c" d="M125.315 300.28h7.82l-2.99-8.18q-.23-.54-.46-1.29-.24-.75-.48-1.62-.22.87-.46 1.63-.24.75-.46 1.31zm6.24-15.3 9.65 24.58h-3.53q-.6 0-.97-.3-.38-.3-.56-.74l-1.84-5.01h-10.18l-1.84 5.01q-.13.39-.53.72-.39.32-.96.32h-3.57l9.67-24.58zm22.49 19.41v-7.82q-.7-.87-1.55-1.22-.85-.36-1.82-.36-.95 0-1.72.36-.76.35-1.3 1.08-.55.72-.84 1.83-.29 1.12-.29 2.63 0 1.53.25 2.59t.71 1.74q.45.67 1.12.97.66.29 1.48.29 1.31 0 2.22-.54.92-.55 1.74-1.55m1.63-12.27h2.57v23.14h-4.2v-7.91q-1.04 1.11-2.35 1.78-1.31.69-3.04.69-1.43 0-2.62-.6t-2.05-1.73-1.32-2.79q-.47-1.67-.47-3.81 0-1.94.53-3.6.52-1.67 1.51-2.89.98-1.23 2.36-1.92t3.1-.69q1.63 0 2.73.57 1.11.56 1.97 1.51l.23-.99q.22-.76 1.05-.76m17.54 0h4.2v17.44h-2.56q-.84 0-1.06-.77l-.29-1.39q-1.07 1.09-2.36 1.76t-3.04.67q-1.43 0-2.53-.48-1.09-.49-1.84-1.37-.75-.89-1.13-2.1-.39-1.22-.39-2.68v-11.08h4.2v11.08q0 1.6.74 2.48.74.87 2.22.87 1.09 0 2.04-.48.95-.49 1.8-1.34zm17.56 12.94v-2.95q-1.81.09-3.06.32-1.24.23-1.98.58-.75.36-1.08.84-.32.47-.32 1.03 0 1.11.66 1.59.65.47 1.7.47 1.3 0 2.24-.47.94-.46 1.84-1.41m-8.87-9.17-.75-1.34q3.01-2.76 7.24-2.76 1.53 0 2.74.51 1.21.5 2.04 1.39t1.27 2.13q.43 1.24.43 2.72v11.02h-1.9q-.6 0-.92-.18t-.51-.72l-.37-1.26q-.67.6-1.3 1.05t-1.31.75q-.68.31-1.45.47t-1.71.16q-1.1 0-2.04-.3-.93-.29-1.61-.89-.68-.59-1.06-1.48-.37-.88-.37-2.05 0-.67.22-1.32.22-.66.72-1.25.5-.6 1.3-1.12.8-.53 1.97-.92 1.16-.39 2.71-.64t3.53-.3v-1.02q0-1.75-.74-2.59-.75-.84-2.16-.84-1.02 0-1.69.24-.68.24-1.19.53l-.92.54q-.42.24-.93.24-.44 0-.75-.23-.3-.23-.49-.54m21.11 1.33v7.82q.72.86 1.56 1.22t1.83.36q.95 0 1.71-.36.77-.36 1.31-1.09.53-.73.82-1.84t.29-2.63q0-1.53-.25-2.59-.24-1.06-.7-1.73-.46-.66-1.12-.96-.65-.31-1.48-.31-1.31 0-2.23.55t-1.74 1.56m-.56-4.34.34 1.62q1.07-1.21 2.43-1.96t3.2-.75q1.43 0 2.61.6 1.18.59 2.04 1.73.86 1.13 1.33 2.78.46 1.66.46 3.8 0 1.96-.52 3.62-.53 1.67-1.51 2.89-.98 1.23-2.36 1.92-1.39.69-3.1.69-1.47 0-2.5-.46-1.04-.45-1.86-1.25v7.15h-4.19v-23.14h2.56q.82 0 1.07.76m19.88-8.58v9.69q1.02-.95 2.24-1.55 1.22-.59 2.87-.59 1.43 0 2.54.48 1.1.48 1.84 1.36t1.12 2.09q.39 1.22.39 2.68v11.1h-4.2v-11.1q0-1.6-.73-2.47-.74-.88-2.23-.88-1.09 0-2.04.49-.95.5-1.8 1.35v12.61h-4.2V284.3zm22.69 7.55q1.94 0 3.53.62 1.59.63 2.72 1.79t1.74 2.82q.61 1.67.61 3.72 0 2.08-.61 3.74-.61 1.67-1.74 2.84-1.13 1.18-2.72 1.81t-3.53.63q-1.95 0-3.55-.63t-2.73-1.81q-1.13-1.17-1.75-2.84-.62-1.66-.62-3.74 0-2.05.62-3.72.62-1.66 1.75-2.82t2.73-1.79q1.6-.62 3.55-.62m0 14.73q2.18 0 3.22-1.46 1.05-1.46 1.05-4.28t-1.05-4.3q-1.04-1.48-3.22-1.48-2.21 0-3.27 1.49-1.06 1.48-1.06 4.29 0 2.8 1.06 4.27t3.27 1.47m15.52-13.41.26 1.97q.81-1.56 1.94-2.45 1.12-.9 2.65-.9 1.2 0 1.94.53l-.28 3.15q-.08.3-.24.43t-.44.13q-.25 0-.75-.09-.5-.08-.98-.08-.7 0-1.24.2-.55.21-.98.59t-.76.92q-.34.55-.62 1.25v10.74h-4.2v-17.44h2.46q.65 0 .9.23.26.23.34.82m34.04-8.19h4.59v24.58h-4.59v-10.74h-11.55v10.74h-4.59v-24.58h4.59v10.57h11.55zm12.71 13.85h7.92q0-.81-.22-1.54-.23-.72-.69-1.26-.46-.55-1.17-.86-.7-.32-1.64-.32-1.82 0-2.86 1.04-1.05 1.04-1.34 2.94m10.71 2.54h-10.79q.1 1.34.47 2.32.38.97.99 1.61t1.45.95q.84.32 1.86.32t1.76-.24 1.3-.53q.55-.29.97-.52.41-.24.8-.24.53 0 .78.39l1.21 1.53q-.7.81-1.56 1.37-.87.55-1.81.88-.95.33-1.92.47-.98.14-1.9.14-1.82 0-3.38-.61-1.57-.6-2.72-1.78-1.16-1.19-1.82-2.93t-.66-4.04q0-1.78.57-3.35.58-1.58 1.66-2.74t2.64-1.84q1.55-.68 3.51-.68 1.65 0 3.04.52 1.39.53 2.4 1.54 1 1.01 1.57 2.48t.57 3.36q0 .95-.21 1.28-.2.34-.78.34m13.35 3.69v-2.95q-1.82.09-3.06.32t-1.99.58q-.75.36-1.07.84-.33.47-.33 1.03 0 1.11.66 1.59.65.47 1.71.47 1.29 0 2.23-.47.95-.46 1.85-1.41m-8.88-9.17-.74-1.34q3-2.76 7.24-2.76 1.53 0 2.73.51 1.21.5 2.04 1.39.84.89 1.27 2.13t.43 2.72v11.02h-1.9q-.59 0-.92-.18-.32-.18-.51-.72l-.37-1.26q-.66.6-1.29 1.05t-1.31.75q-.68.31-1.46.47-.77.16-1.7.16-1.11 0-2.04-.3-.94-.29-1.62-.89-.68-.59-1.05-1.48-.38-.88-.38-2.05 0-.67.22-1.32.22-.66.73-1.25.5-.6 1.3-1.12.8-.53 1.96-.92t2.71-.64 3.54-.3v-1.02q0-1.75-.75-2.59t-2.16-.84q-1.02 0-1.69.24t-1.18.53q-.51.3-.93.54t-.93.24q-.44 0-.74-.23-.31-.23-.5-.54m16.97-11.59h4.2v25.26h-4.2zm8.53 7.82h4.22v17.44h-4.22zm4.8-5.09q0 .55-.22 1.02-.22.48-.59.84-.37.35-.86.57-.49.21-1.05.21-.55 0-1.03-.21-.49-.22-.84-.57-.36-.36-.57-.84-.21-.47-.21-1.02 0-.56.21-1.05t.57-.85q.35-.36.84-.57.48-.21 1.03-.21.56 0 1.05.21t.86.57.59.85.22 1.05m7.34 5.85.29 1.38q.53-.53 1.11-.98.59-.45 1.25-.76.65-.32 1.4-.5.75-.17 1.63-.17 1.43 0 2.53.48 1.11.48 1.85 1.36t1.12 2.09q.38 1.22.38 2.68v11.1h-4.2v-11.1q0-1.6-.73-2.47-.73-.88-2.23-.88-1.08 0-2.04.49-.95.5-1.8 1.35v12.61h-4.2v-17.44h2.57q.82 0 1.07.76m21.91 7.53q.79 0 1.36-.21.58-.21.96-.59.39-.37.58-.9.2-.52.2-1.15 0-1.29-.78-2.05-.77-.76-2.32-.76-1.54 0-2.32.76-.77.76-.77 2.05 0 .61.2 1.14.19.52.57.91.39.38.97.59.59.21 1.35.21m4.75 9.93q0-.51-.31-.83-.3-.32-.83-.5t-1.23-.27q-.71-.08-1.5-.12-.79-.05-1.63-.08t-1.64-.14q-.7.39-1.13.92-.44.53-.44 1.23 0 .46.23.85.23.4.73.69.51.29 1.3.45.8.17 1.96.17 1.17 0 2.02-.18t1.41-.5q.55-.31.8-.74.26-.44.26-.95m-.84-17.63h5.02v1.57q0 .74-.9.91l-1.57.29q.36.9.36 1.98 0 1.29-.52 2.33-.52 1.05-1.43 1.78-.92.73-2.17 1.13t-2.7.4q-.51 0-.98-.05-.48-.05-.94-.14-.81.5-.81 1.11 0 .52.48.77.49.25 1.29.35.79.1 1.81.13 1.02.02 2.1.11 1.07.08 2.09.3 1.02.21 1.82.67.79.46 1.28 1.25.48.79.48 2.03 0 1.15-.57 2.24t-1.64 1.94q-1.08.85-2.66 1.37-1.57.52-3.58.52-1.97 0-3.43-.39-1.46-.38-2.43-1.02-.97-.63-1.45-1.47-.47-.83-.47-1.73 0-1.22.74-2.05.74-.82 2.03-1.32-.7-.35-1.11-.95-.4-.59-.4-1.56 0-.39.14-.81.15-.42.43-.82.28-.41.7-.78.43-.36 1-.65-1.32-.72-2.08-1.91-.75-1.19-.75-2.78 0-1.3.51-2.34.52-1.05 1.45-1.79t2.19-1.13q1.27-.39 2.76-.39 1.13 0 2.11.23.99.23 1.8.67m21.17 4.63h3.42q1.25 0 2.19-.32.93-.31 1.55-.9.63-.59.93-1.43.31-.84.31-1.88 0-.98-.31-1.78-.3-.8-.92-1.36-.61-.56-1.54-.86-.94-.3-2.21-.3h-3.42zm-4.57-12.36h7.99q2.46 0 4.26.58 1.81.57 2.98 1.61t1.74 2.48q.57 1.45.57 3.16 0 1.79-.59 3.28-.6 1.48-1.79 2.56-1.19 1.07-2.98 1.66-1.8.6-4.19.6h-3.42v8.65h-4.57zm29.59 20.08v-2.95q-1.82.09-3.06.32t-1.99.58q-.74.36-1.07.84-.32.47-.32 1.03 0 1.11.66 1.59.65.47 1.7.47 1.3 0 2.24-.47.94-.46 1.84-1.41m-8.87-9.17-.75-1.34q3.01-2.76 7.24-2.76 1.53 0 2.74.51 1.21.5 2.04 1.39t1.27 2.13q.43 1.24.43 2.72v11.02h-1.9q-.6 0-.92-.18t-.51-.72l-.38-1.26q-.66.6-1.29 1.05t-1.31.75q-.68.31-1.45.47t-1.71.16q-1.1 0-2.04-.3-.93-.29-1.61-.89-.68-.59-1.06-1.48-.37-.88-.37-2.05 0-.67.22-1.32.22-.66.72-1.25.5-.6 1.3-1.12.8-.53 1.97-.92 1.16-.39 2.71-.64 1.54-.25 3.53-.3v-1.02q0-1.75-.74-2.59-.75-.84-2.16-.84-1.02 0-1.69.24-.68.24-1.19.53l-.92.54q-.42.24-.93.24-.44 0-.75-.23-.3-.23-.49-.54m28.51-1.89-.95 1.52q-.17.27-.36.38t-.48.11q-.3 0-.65-.17t-.81-.38-1.04-.38q-.59-.17-1.39-.17-1.24 0-1.95.52-.7.53-.7 1.38 0 .56.36.94.37.39.97.67.61.29 1.37.52.77.23 1.56.5.79.28 1.55.63.77.34 1.37.88.6.53.97 1.28t.37 1.8q0 1.26-.45 2.33-.46 1.06-1.34 1.83t-2.18 1.21q-1.3.43-3 .43-.91 0-1.76-.16-.86-.16-1.65-.45t-1.46-.68q-.68-.39-1.19-.85l.97-1.6q.19-.29.44-.44.26-.15.65-.15t.74.22.81.47q.46.26 1.08.48t1.57.22q.75 0 1.28-.18.54-.18.89-.47.35-.28.51-.67.16-.38.16-.79 0-.61-.37-1-.36-.39-.97-.68-.6-.29-1.37-.52-.78-.23-1.58-.5-.81-.27-1.58-.64-.78-.36-1.38-.92-.61-.57-.97-1.38-.37-.82-.37-1.97 0-1.07.43-2.04.42-.97 1.25-1.69.82-.73 2.06-1.16 1.23-.43 2.84-.43 1.8 0 3.28.59 1.48.6 2.47 1.56m9.16 15.83q-2.28 0-3.49-1.28-1.22-1.29-1.22-3.55v-9.74h-1.78q-.34 0-.58-.22t-.24-.66v-1.67l2.81-.46.88-4.76q.09-.34.32-.52.24-.19.62-.19h2.17v5.49h4.66v2.99h-4.66v9.45q0 .82.4 1.28t1.1.46q.39 0 .65-.09.27-.1.46-.2.2-.1.35-.2.15-.09.31-.09.18 0 .3.09.12.1.26.28l1.25 2.04q-.91.77-2.1 1.16t-2.47.39m10.15-11h7.92q0-.81-.23-1.54-.23-.72-.69-1.26-.45-.55-1.16-.86-.71-.32-1.64-.32-1.82 0-2.86 1.04-1.05 1.04-1.34 2.94m10.71 2.54h-10.79q.1 1.34.47 2.32.38.97.99 1.61t1.45.95q.84.32 1.86.32t1.76-.24 1.29-.53q.56-.29.97-.52.42-.24.81-.24.53 0 .78.39l1.21 1.53q-.7.81-1.56 1.37-.87.55-1.81.88-.95.33-1.93.47-.97.14-1.89.14-1.82 0-3.38-.61-1.57-.6-2.72-1.78-1.16-1.19-1.82-2.93-.67-1.74-.67-4.04 0-1.78.58-3.35.58-1.58 1.66-2.74t2.63-1.84q1.56-.68 3.51-.68 1.65 0 3.05.52 1.39.53 2.39 1.54 1.01 1.01 1.58 2.48t.57 3.36q0 .95-.21 1.28-.2.34-.78.34"/></svg>