<svg xmlns="http://www.w3.org/2000/svg" width="600" height="600" viewBox="0 0 600 600"><rect width="100%" height="100%" fill="#16161f"/><path fill="#c9a84c" d="M127.08 300.59h9.2l-3.52-9.62q-.26-.64-.54-1.52t-.56-1.9q-.26 1.02-.54 1.91t-.54 1.55zm7.34-18 11.36 28.92h-4.16q-.7 0-1.14-.35t-.66-.87l-2.16-5.9h-11.98l-2.16 5.9q-.16.46-.62.84t-1.14.38h-4.2l11.38-28.92zm26.46 22.84v-9.2q-.82-1.02-1.82-1.44t-2.14-.42q-1.12 0-2.02.42t-1.54 1.27-.98 2.16-.34 3.09q0 1.8.29 3.05t.83 2.04 1.32 1.14 1.74.35q1.54 0 2.62-.64t2.04-1.82m1.92-14.44h3.02v27.22h-4.94v-9.3q-1.22 1.3-2.76 2.1t-3.58.8q-1.68 0-3.08-.7t-2.41-2.03-1.56-3.29-.55-4.48q0-2.28.62-4.24t1.78-3.4 2.78-2.25 3.64-.81q1.92 0 3.22.66t2.32 1.78l.26-1.16q.26-.9 1.24-.9m20.64 0h4.94v20.52h-3.02q-.98 0-1.24-.9l-.34-1.64q-1.26 1.28-2.78 2.07t-3.58.79q-1.68 0-2.97-.57t-2.17-1.61-1.33-2.47-.45-3.15v-13.04h4.94v13.04q0 1.88.87 2.91t2.61 1.03q1.28 0 2.4-.57t2.12-1.57zm20.66 15.22v-3.46q-2.14.1-3.6.37t-2.34.69-1.26.98-.38 1.22q0 1.3.77 1.86t2.01.56q1.52 0 2.63-.55t2.17-1.67m-10.44-10.78-.88-1.58q3.54-3.24 8.52-3.24 1.8 0 3.22.59t2.4 1.64 1.49 2.51.51 3.2v12.96h-2.24q-.7 0-1.08-.21t-.6-.85l-.44-1.48q-.78.7-1.52 1.23t-1.54.89-1.71.55-2.01.19q-1.3 0-2.4-.35t-1.9-1.05-1.24-1.74-.44-2.42q0-.78.26-1.55t.85-1.47 1.53-1.32 2.31-1.08 3.19-.75 4.16-.35v-1.2q0-2.06-.88-3.05t-2.54-.99q-1.2 0-1.99.28t-1.39.63-1.09.63-1.09.28q-.52 0-.88-.27t-.58-.63m24.84 1.56v9.2q.84 1.02 1.83 1.44t2.15.42q1.12 0 2.02-.42t1.53-1.28.97-2.17.34-3.09q0-1.8-.29-3.05t-.83-2.03-1.31-1.14-1.75-.36q-1.54 0-2.62.65t-2.04 1.83m-.66-5.1.4 1.9q1.26-1.42 2.86-2.3t3.76-.88q1.68 0 3.07.7t2.4 2.03 1.56 3.28.55 4.47q0 2.3-.62 4.26t-1.77 3.4-2.78 2.25-3.65.81q-1.72 0-2.94-.53t-2.18-1.47v8.4h-4.94v-27.22h3.02q.96 0 1.26.9m23.38-10.1v11.4q1.2-1.12 2.64-1.82t3.38-.7q1.68 0 2.98.57t2.17 1.6 1.32 2.46.45 3.15v13.06h-4.94v-13.06q0-1.88-.86-2.91t-2.62-1.03q-1.28 0-2.4.58t-2.12 1.58v14.84h-4.94v-29.72zm26.7 8.88q2.28 0 4.15.74t3.2 2.1 2.05 3.32.72 4.38q0 2.44-.72 4.4t-2.05 3.34-3.2 2.12-4.15.74q-2.3 0-4.18-.74t-3.21-2.12-2.06-3.34-.73-4.4q0-2.42.73-4.38t2.06-3.32 3.21-2.1 4.18-.74m0 17.34q2.56 0 3.79-1.72t1.23-5.04-1.23-5.06-3.79-1.74q-2.6 0-3.85 1.75t-1.25 5.05 1.25 5.03 3.85 1.73m18.26-15.78.3 2.32q.96-1.84 2.28-2.89t3.12-1.05q1.42 0 2.28.62l-.32 3.7q-.1.36-.29.51t-.51.15q-.3 0-.89-.1t-1.15-.1q-.82 0-1.46.24t-1.15.69-.9 1.09-.73 1.46v12.64h-4.94v-20.52h2.9q.76 0 1.06.27t.4.97m26.44 14.84h11.56v4.44h-16.94v-28.92h5.38zm14.78-16.08h4.96v20.52h-4.96zm5.64-5.98q0 .64-.26 1.2t-.69.98-1.01.67-1.24.25q-.64 0-1.21-.25t-.99-.67-.67-.98-.25-1.2q0-.66.25-1.24t.67-1 .99-.67 1.21-.25q.66 0 1.24.25t1.01.67.69 1 .26 1.24m9.3 11.98v9.2q.84 1.02 1.83 1.44t2.15.42q1.12 0 2.02-.42t1.53-1.28.97-2.17.34-3.09q0-1.8-.29-3.05t-.83-2.03-1.31-1.14-1.75-.36q-1.54 0-2.62.65t-2.04 1.83m-.66-5.1.4 1.9q1.26-1.42 2.86-2.3t3.76-.88q1.68 0 3.07.7t2.4 2.03 1.56 3.28.55 4.47q0 2.3-.62 4.26t-1.77 3.4-2.78 2.25-3.65.81q-1.72 0-2.94-.53t-2.18-1.47v8.4h-4.94v-27.22h3.02q.96 0 1.26.9m34.32 4.46h3.36q1.52 0 2.65-.38t1.86-1.05 1.09-1.59.36-2.02q0-2.2-1.45-3.38t-4.43-1.18H376zm9.96 4.48 7.24 10.68h-4.86q-1.38 0-2-1.08l-6.08-9.26q-.34-.52-.75-.74t-1.21-.22H376v11.3h-5.38v-28.92h8.82q2.94 0 5.05.61t3.46 1.71 1.99 2.63.64 3.37q0 1.46-.43 2.76t-1.24 2.36-2 1.86-2.71 1.26q.52.3.96.71t.8.97m13.5-1.94h9.32q0-.96-.27-1.81t-.81-1.49-1.37-1.01-1.93-.37q-2.14 0-3.37 1.22t-1.57 3.46m12.6 2.98h-12.7q.12 1.58.56 2.73t1.16 1.9 1.71 1.12 2.19.37 2.07-.28 1.52-.62 1.14-.62.95-.28q.62 0 .92.46l1.42 1.8q-.82.96-1.84 1.61t-2.13 1.04-2.26.55-2.23.16q-2.14 0-3.98-.71t-3.2-2.1-2.14-3.44-.78-4.75q0-2.1.68-3.95t1.95-3.22 3.1-2.17 4.13-.8q1.94 0 3.58.62t2.82 1.81 1.85 2.92.67 3.95q0 1.12-.24 1.51t-.92.39m9.8-4.88v9.2q.84 1.02 1.83 1.44t2.15.42q1.12 0 2.02-.42t1.53-1.28.97-2.17.34-3.09q0-1.8-.29-3.05t-.83-2.03-1.31-1.14-1.75-.36q-1.54 0-2.62.65t-2.04 1.83m-.66-5.1.4 1.9q1.26-1.42 2.86-2.3t3.76-.88q1.68 0 3.07.7t2.4 2.03 1.56 3.28.55 4.47q0 2.3-.62 4.26t-1.77 3.4-2.78 2.25-3.65.81q-1.72 0-2.94-.53t-2.18-1.47v8.4h-4.94v-27.22h3.02q.96 0 1.26.9m29.28 14.32v-3.46q-2.14.1-3.6.37t-2.34.69-1.26.98-.38 1.22q0 1.3.77 1.86t2.01.56q1.52 0 2.63-.55t2.17-1.67m-10.44-10.78-.88-1.58q3.54-3.24 8.52-3.24 1.8 0 3.22.59t2.4 1.64 1.49 2.51.51 3.2v12.96h-2.24q-.7 0-1.08-.21t-.6-.85l-.44-1.48q-.78.7-1.52 1.23t-1.54.89-1.71.55-2.01.19q-1.3 0-2.4-.35t-1.9-1.05-1.24-1.74-.44-2.42q0-.78.26-1.55t.85-1.47 1.53-1.32 2.31-1.08 3.19-.75 4.16-.35v-1.2q0-2.06-.88-3.05t-2.54-.99q-1.2 0-1.99.28t-1.39.63-1.09.63-1.09.28q-.52 0-.88-.27t-.58-.63m20.06-4.44h4.96v20.52h-4.96zm5.64-5.98q0 .64-.26 1.2t-.69.98-1.01.67-1.24.25q-.64 0-1.21-.25t-.99-.67-.67-.98-.25-1.2q0-.66.25-1.24t.67-1 .99-.67 1.21-.25q.66 0 1.24.25t1.01.67.69 1 .26 1.24m8.72 7.22.3 2.32q.96-1.84 2.28-2.89t3.12-1.05q1.42 0 2.28.62l-.32 3.7q-.1.36-.29.51t-.51.15q-.3 0-.89-.1t-1.15-.1q-.82 0-1.46.24t-1.15.69-.9 1.09-.73 1.46v12.64h-4.94v-20.52h2.9q.76 0 1.06.27t.4.97"/></svg>