<svg xmlns="http://www.w3.org/2000/svg" width="600" height="600" viewBox="0 0 600 600"><rect width="100%" height="100%" fill="#16161f"/><path fill="#c9a84c" d="M124.575 300.425h6.67l-2.55-6.97q-.19-.47-.39-1.1-.2-.64-.41-1.38-.18.74-.39 1.38-.2.65-.39 1.13zm5.32-13.05 8.24 20.97h-3.02q-.5 0-.82-.25-.32-.26-.48-.63l-1.57-4.28h-8.68l-1.57 4.28q-.11.33-.45.6-.33.28-.82.28h-3.05l8.25-20.97zm19.19 16.56v-6.67q-.6-.74-1.32-1.04-.73-.31-1.55-.31-.81 0-1.47.31-.65.3-1.11.92-.47.61-.71 1.56-.25.95-.25 2.24 0 1.31.21 2.22.21.9.6 1.48.39.57.96.82.56.26 1.26.26 1.12 0 1.9-.47.78-.46 1.48-1.32m1.39-10.47h2.19v19.74h-3.58v-6.75q-.89.95-2 1.53-1.12.58-2.6.58-1.22 0-2.23-.51-1.02-.51-1.75-1.47-.73-.97-1.13-2.39t-.4-3.25q0-1.65.45-3.07t1.29-2.46q.84-1.05 2.02-1.64 1.17-.58 2.64-.58 1.39 0 2.33.48.94.47 1.68 1.29l.19-.84q.19-.66.9-.66m14.96 0h3.59v14.88h-2.19q-.71 0-.9-.65l-.25-1.19q-.91.93-2.01 1.5-1.11.57-2.6.57-1.22 0-2.15-.41-.94-.41-1.58-1.17-.63-.75-.96-1.79t-.33-2.28v-9.46h3.58v9.46q0 1.36.64 2.11.63.74 1.89.74.93 0 1.74-.41t1.53-1.14zm14.98 11.04v-2.51q-1.55.07-2.61.27-1.06.19-1.69.5-.64.3-.92.71-.27.4-.27.88 0 .94.56 1.35.55.41 1.45.41 1.1 0 1.91-.4.8-.4 1.57-1.21m-7.57-7.82-.63-1.14q2.56-2.35 6.17-2.35 1.31 0 2.34.43 1.03.42 1.74 1.18.71.77 1.08 1.82.37 1.06.37 2.32v9.4h-1.63q-.5 0-.78-.15t-.43-.62l-.32-1.07q-.57.51-1.11.89-.53.38-1.11.65-.58.26-1.24.39-.66.14-1.46.14-.94 0-1.74-.25-.8-.26-1.38-.76-.58-.51-.9-1.26-.31-.76-.31-1.76 0-.56.18-1.12.19-.56.62-1.07t1.11-.96 1.67-.78q1-.33 2.32-.54t3.01-.26v-.87q0-1.49-.64-2.21-.63-.72-1.84-.72-.87 0-1.44.21-.57.2-1.01.45-.43.26-.79.46-.35.2-.79.2-.37 0-.64-.19-.26-.2-.42-.46m18.01 1.13v6.67q.61.74 1.33 1.05.72.3 1.56.3.81 0 1.46-.3.66-.31 1.11-.93.46-.62.71-1.57.24-.95.24-2.24 0-1.31-.21-2.22-.21-.9-.6-1.47-.39-.56-.95-.82-.56-.27-1.27-.27-1.12 0-1.9.48-.78.47-1.48 1.32m-.48-3.69.29 1.37q.92-1.03 2.08-1.66 1.16-.64 2.72-.64 1.22 0 2.23.5 1.01.51 1.74 1.48.73.96 1.13 2.37.4 1.42.4 3.25 0 1.66-.45 3.08t-1.28 2.47q-.84 1.04-2.02 1.63t-2.65.59q-1.24 0-2.13-.39-.88-.38-1.58-1.06v6.09h-3.58v-19.74h2.19q.7 0 .91.66m16.95-7.33v8.27q.87-.81 1.92-1.32 1.04-.51 2.45-.51 1.22 0 2.16.41.94.42 1.57 1.16.63.75.96 1.79.33 1.03.33 2.28v9.47h-3.59v-9.47q0-1.36-.62-2.11t-1.9-.75q-.93 0-1.74.43-.81.42-1.54 1.14v10.76h-3.58v-21.55zm19.36 6.44q1.66 0 3.01.54 1.36.53 2.32 1.52.97.99 1.49 2.41t.52 3.17q0 1.77-.52 3.19t-1.49 2.42q-.96 1-2.32 1.54-1.35.54-3.01.54-1.67 0-3.03-.54t-2.33-1.54q-.96-1-1.49-2.42t-.53-3.19q0-1.75.53-3.17t1.49-2.41q.97-.99 2.33-1.52 1.36-.54 3.03-.54m0 12.57q1.86 0 2.75-1.24.89-1.25.89-3.66t-.89-3.67-2.75-1.26q-1.88 0-2.79 1.27t-.91 3.66.91 3.65q.91 1.25 2.79 1.25m13.24-11.44.22 1.68q.69-1.33 1.65-2.09t2.26-.76q1.03 0 1.66.45l-.24 2.68q-.07.26-.21.37-.13.11-.37.11-.21 0-.64-.07-.43-.08-.83-.08-.6 0-1.06.18-.47.17-.84.5-.37.32-.65.79-.28.46-.53 1.06v9.16h-3.58v-14.88h2.1q.55 0 .77.2.22.19.29.7m40.11-6.99h3.06l-6.51 20.97h-3.53l-4.58-14.33q-.19-.52-.35-1.27-.08.36-.17.68t-.19.59l-4.62 14.33h-3.54l-6.5-20.97h3.26q.51 0 .85.24t.46.65l3.57 12.54q.11.46.22 1.01.11.54.23 1.14.11-.61.25-1.15t.3-1l4.11-12.54q.12-.34.46-.61.34-.28.83-.28h1.15q.51 0 .83.25t.48.64l4.1 12.54q.3.9.55 2.07.19-1.14.42-2.07l3.57-12.54q.08-.37.44-.63.35-.26.85-.26m12.93 17.13v-2.51q-1.55.07-2.61.27-1.06.19-1.69.5-.64.3-.92.71-.27.4-.27.88 0 .94.55 1.35.56.41 1.46.41 1.1 0 1.91-.4.8-.4 1.57-1.21m-7.57-7.82-.64-1.14q2.57-2.35 6.18-2.35 1.31 0 2.34.43 1.03.42 1.74 1.18.71.77 1.08 1.82.37 1.06.37 2.32v9.4h-1.63q-.51 0-.78-.15-.28-.15-.44-.62l-.31-1.07q-.57.51-1.11.89-.53.38-1.11.65-.58.26-1.24.39-.66.14-1.46.14-.94 0-1.74-.25-.8-.26-1.38-.76-.58-.51-.9-1.26-.32-.76-.32-1.76 0-.56.19-1.12t.62-1.07 1.11-.96 1.67-.78q1-.33 2.32-.54t3.01-.26v-.87q0-1.49-.64-2.21-.63-.72-1.84-.72-.87 0-1.44.21-.57.2-1.01.45-.43.26-.79.46-.35.2-.79.2-.38 0-.64-.19-.26-.2-.42-.46m24.32-1.61-.81 1.29q-.15.23-.31.33-.16.09-.4.09-.26 0-.56-.14-.3-.15-.69-.33t-.89-.32q-.5-.15-1.18-.15-1.06 0-1.66.45-.61.45-.61 1.17 0 .48.32.81.31.33.82.57.52.25 1.17.44.65.2 1.33.43.67.23 1.32.53.66.3 1.17.76.52.45.83 1.09t.31 1.54q0 1.07-.39 1.98-.38.9-1.13 1.56-.76.66-1.87 1.03t-2.56.37q-.76 0-1.5-.14-.73-.13-1.4-.38-.68-.25-1.25-.58t-1.01-.72l.83-1.37q.16-.24.38-.37.21-.14.55-.14.33 0 .63.19.29.19.69.41.39.22.92.4.53.19 1.34.19.64 0 1.09-.15.46-.15.76-.4.29-.24.43-.57t.14-.67q0-.53-.31-.86t-.83-.58q-.51-.25-1.17-.44-.66-.2-1.35-.43t-1.35-.54q-.66-.32-1.17-.79-.52-.48-.83-1.18-.31-.69-.31-1.68 0-.91.36-1.74t1.07-1.44q.7-.62 1.75-.99t2.43-.37q1.54 0 2.8.51t2.1 1.33m6.44-8.28v8.27q.87-.81 1.91-1.32 1.05-.51 2.45-.51 1.22 0 2.16.41.94.42 1.58 1.16.63.75.95 1.79.33 1.03.33 2.28v9.47h-3.58v-9.47q0-1.36-.63-2.11-.62-.75-1.9-.75-.92 0-1.74.43-.81.42-1.53 1.14v10.76h-3.58v-21.55zm30.48 17.42-5.5-5.67q-1.16.75-1.69 1.7t-.53 2.04q0 .8.28 1.43.27.64.74 1.08.48.45 1.11.69t1.34.24q1.27 0 2.33-.4t1.92-1.11m4.07-.42 4.39 4.55h-3.5q-.56 0-.9-.13t-.71-.55l-1.45-1.5q-1.38 1.14-3.09 1.77-1.71.64-3.7.64-1.2 0-2.37-.41t-2.08-1.2q-.92-.78-1.47-1.89-.56-1.11-.56-2.5 0-.99.32-1.86.32-.88.88-1.64.57-.75 1.35-1.35t1.71-1.04q-.78-1.09-1.13-2.12-.35-1.04-.35-2.07 0-1.09.4-2.06.4-.98 1.15-1.71.76-.72 1.86-1.15t2.49-.43q1.28 0 2.29.39t1.72 1.05q.72.65 1.13 1.49.42.84.49 1.74l-2.28.48q-.63.13-.92-.55-.14-.38-.35-.72t-.5-.59q-.29-.26-.68-.41t-.9-.15q-.61 0-1.08.21-.48.21-.81.56-.32.36-.5.83-.17.47-.17.99 0 .44.08.84.09.41.29.82.21.4.53.83.33.43.81.92l5.57 5.79q.47-.92.76-1.93.29-1.02.38-2.06.05-.34.23-.54.19-.2.53-.2h2.23q-.02 1.91-.55 3.65-.54 1.74-1.54 3.21m26-14.45-.97 1.85q-.18.3-.37.44-.2.14-.49.14-.3 0-.66-.23-.35-.22-.85-.5-.49-.27-1.15-.5-.66-.22-1.56-.22-.81 0-1.42.19-.61.2-1.02.55-.41.34-.62.83-.2.49-.2 1.07 0 .73.41 1.23.42.49 1.1.84t1.55.62q.87.28 1.78.59.92.31 1.79.72.87.42 1.55 1.05t1.09 1.54q.42.92.42 2.22 0 1.42-.49 2.66t-1.42 2.16q-.94.92-2.28 1.45-1.35.53-3.09.53-1 0-1.97-.19-.98-.2-1.87-.56t-1.67-.87q-.79-.51-1.39-1.13l1.14-1.87q.15-.21.38-.34.23-.14.49-.14.36 0 .78.3.42.29 1 .65.58.37 1.36.66.78.3 1.86.3 1.67 0 2.58-.79.92-.79.92-2.27 0-.82-.42-1.35-.41-.52-1.09-.87-.68-.36-1.55-.61-.87-.24-1.77-.53t-1.77-.7q-.87-.4-1.55-1.06-.68-.65-1.1-1.63-.41-.98-.41-2.41 0-1.15.46-2.23.45-1.09 1.32-1.93t2.15-1.35 2.93-.51q1.86 0 3.42.58 1.57.58 2.67 1.62m6.79-2.55v8.27q.87-.81 1.91-1.32t2.45-.51q1.22 0 2.16.41.94.42 1.57 1.16.63.75.96 1.79.33 1.03.33 2.28v9.47h-3.58v-9.47q0-1.36-.63-2.11-.62-.75-1.9-.75-.93 0-1.74.43-.81.42-1.53 1.14v10.76h-3.59v-21.55zm20.63 17.71v-2.51q-1.55.07-2.61.27-1.06.19-1.7.5-.64.3-.91.71-.28.4-.28.88 0 .94.56 1.35t1.46.41q1.1 0 1.91-.4.8-.4 1.57-1.21m-7.57-7.82-.64-1.14q2.57-2.35 6.18-2.35 1.3 0 2.33.43 1.03.42 1.74 1.18.71.77 1.08 1.82.37 1.06.37 2.32v9.4h-1.62q-.51 0-.78-.15-.28-.15-.44-.62l-.32-1.07q-.56.51-1.1.89t-1.12.65q-.58.26-1.24.39-.66.14-1.45.14-.95 0-1.74-.25-.8-.26-1.38-.76-.58-.51-.9-1.26-.32-.76-.32-1.76 0-.56.19-1.12t.62-1.07q.42-.51 1.11-.96.68-.45 1.67-.78t2.31-.54 3.02-.26v-.87q0-1.49-.64-2.21t-1.84-.72q-.87 0-1.44.21-.58.2-1.01.45-.44.26-.79.46-.36.2-.79.2-.38 0-.64-.19-.26-.2-.42-.46m18.01 11.66h-3.58v-14.88h2.19q.69 0 .91.66l.23 1.1q.39-.44.82-.8t.92-.62q.48-.26 1.04-.42.56-.15 1.22-.15 1.41 0 2.32.76.9.76 1.35 2.02.35-.73.87-1.26t1.15-.87q.62-.33 1.33-.49.7-.16 1.41-.16 1.23 0 2.19.38.96.37 1.61 1.1.65.72.99 1.77.34 1.04.34 2.39v9.47h-3.58v-9.47q0-1.42-.62-2.14-.63-.72-1.83-.72-.55 0-1.02.19t-.83.55q-.35.35-.56.89-.2.54-.2 1.23v9.47h-3.6v-9.47q0-1.49-.6-2.17-.6-.69-1.76-.69-.78 0-1.46.39-.67.38-1.25 1.05zm24.29-10.53v6.67q.61.74 1.32 1.05.72.3 1.56.3.81 0 1.47-.3.65-.31 1.11-.93.45-.62.7-1.57t.25-2.24q0-1.31-.21-2.22-.22-.9-.61-1.47-.39-.56-.95-.82-.55-.27-1.27-.27-1.11 0-1.89.48-.79.47-1.48 1.32m-.48-3.69.29 1.37q.91-1.03 2.07-1.66 1.16-.64 2.73-.64 1.22 0 2.22.5 1.01.51 1.74 1.48.74.96 1.13 2.37.4 1.42.4 3.25 0 1.66-.45 3.08t-1.28 2.47q-.83 1.04-2.02 1.63-1.18.59-2.64.59-1.25 0-2.13-.39-.89-.38-1.58-1.06v6.09h-3.59v-19.74h2.19q.7 0 .92.66m19.95-.89q1.65 0 3.01.54 1.35.53 2.32 1.52.96.99 1.48 2.41.53 1.42.53 3.17 0 1.77-.53 3.19-.52 1.42-1.48 2.42-.97 1-2.32 1.54-1.36.54-3.01.54-1.67 0-3.03-.54t-2.33-1.54q-.96-1-1.49-2.42t-.53-3.19q0-1.75.53-3.17t1.49-2.41q.97-.99 2.33-1.52 1.36-.54 3.03-.54m0 12.57q1.86 0 2.75-1.24.89-1.25.89-3.66t-.89-3.67-2.75-1.26q-1.88 0-2.79 1.27t-.91 3.66.91 3.65q.91 1.25 2.79 1.25m16.66-12.57q1.65 0 3.01.54 1.35.53 2.32 1.52.96.99 1.49 2.41.52 1.42.52 3.17 0 1.77-.52 3.19-.53 1.42-1.49 2.42-.97 1-2.32 1.54-1.36.54-3.01.54-1.67 0-3.03-.54t-2.33-1.54q-.96-1-1.49-2.42t-.53-3.19q0-1.75.53-3.17t1.49-2.41q.97-.99 2.33-1.52 1.36-.54 3.03-.54m0 12.57q1.86 0 2.75-1.24.89-1.25.89-3.66t-.89-3.67-2.75-1.26q-1.88 0-2.79 1.27t-.91 3.66.91 3.65q.91 1.25 2.79 1.25"/></svg>