<svg xmlns="http://www.w3.org/2000/svg" width="600" height="600" viewBox="0 0 600 600"><rect width="100%" height="100%" fill="#16161f"/><path fill="#c9a84c" d="M136.725 287.855h-11.88v7.92h10.03v3.97h-10.03v10.9h-4.99v-26.75h16.87zm7.38 4.96.28 2.14q.89-1.7 2.11-2.67t2.89-.97q1.31 0 2.1.57l-.29 3.42q-.09.34-.27.48-.18.13-.47.13-.28 0-.82-.09-.55-.09-1.07-.09-.76 0-1.35.22t-1.06.64-.84 1.01q-.36.59-.67 1.35v11.69h-4.57v-18.98h2.68q.71 0 .98.25.28.25.37.9m9.92-1.15h4.59v18.98h-4.59zm5.22-5.53q0 .59-.24 1.11t-.64.9q-.4.39-.94.62-.53.24-1.14.24-.6 0-1.12-.24-.53-.23-.92-.62-.39-.38-.62-.9t-.23-1.11q0-.61.23-1.15t.62-.92q.39-.39.92-.62.52-.24 1.12-.24.61 0 1.14.24.54.23.94.62.4.38.64.92t.24 1.15m15.94 18.89v-8.51q-.77-.95-1.69-1.34-.92-.38-1.97-.38-1.04 0-1.87.38-.83.39-1.42 1.18-.6.79-.91 2t-.31 2.86q0 1.66.26 2.82.27 1.15.77 1.88t1.22 1.06q.72.32 1.61.32 1.43 0 2.43-.59t1.88-1.68m0-21.87h4.57v27.49h-2.79q-.91 0-1.15-.83l-.39-1.83q-1.14 1.31-2.63 2.12-1.49.82-3.47.82-1.56 0-2.85-.65-1.3-.65-2.23-1.88t-1.44-3.04-.51-4.14q0-2.11.57-3.93.58-1.81 1.65-3.14t2.57-2.08 3.37-.75q1.59 0 2.72.5t2.01 1.35zm19.11 22.59v-3.2q-1.98.09-3.33.34t-2.16.64-1.17.9q-.35.52-.35 1.13 0 1.21.71 1.72.72.52 1.86.52 1.41 0 2.44-.51 1.02-.51 2-1.54m-9.65-9.97-.82-1.47q3.28-2.99 7.88-2.99 1.67 0 2.98.54 1.32.55 2.22 1.52.91.97 1.38 2.32t.47 2.96v11.99h-2.07q-.65 0-1-.19-.35-.2-.55-.79l-.41-1.37q-.72.65-1.41 1.14-.68.49-1.42.82t-1.58.51-1.86.18q-1.2 0-2.22-.33-1.02-.32-1.76-.97t-1.15-1.61q-.4-.96-.4-2.24 0-.72.24-1.43t.78-1.36q.55-.65 1.42-1.22t2.13-1q1.27-.43 2.96-.69 1.68-.27 3.84-.33v-1.11q0-1.9-.81-2.82-.81-.91-2.35-.91-1.11 0-1.84.25-.73.26-1.29.59l-1 .58q-.46.26-1.01.26-.48 0-.82-.25-.33-.25-.53-.58m22.97 1.44v8.51q.78.94 1.7 1.33.91.39 1.93.39 1.05 0 1.9-.38.84-.38 1.43-1.18.59-.81.91-2.06.31-1.25.31-2.98 0-3.13-1.04-4.53-1.03-1.39-2.97-1.39-1.32 0-2.3.6t-1.87 1.69m0-14.06v10.84q1.15-1.2 2.55-1.91 1.39-.72 3.19-.72 1.65 0 2.97.65t2.25 1.86q.94 1.21 1.44 2.93t.5 3.87q0 2.31-.58 4.2-.57 1.89-1.63 3.23-1.07 1.34-2.56 2.08-1.5.74-3.33.74-.89 0-1.61-.18-.73-.17-1.34-.49-.61-.31-1.12-.77-.5-.45-.97-1l-.2 1.27q-.11.48-.38.69-.27.2-.73.2h-3.02v-27.49zm26.46 22.59v-3.2q-1.98.09-3.33.34t-2.17.64q-.81.39-1.16.9-.35.52-.35 1.13 0 1.21.71 1.72.71.52 1.86.52 1.4 0 2.43-.51t2.01-1.54m-9.66-9.97-.81-1.47q3.27-2.99 7.88-2.99 1.66 0 2.98.54 1.31.55 2.22 1.52.9.97 1.38 2.32.47 1.35.47 2.96v11.99h-2.07q-.65 0-1-.19-.36-.2-.56-.79l-.41-1.37q-.72.65-1.4 1.14-.69.49-1.43.82t-1.58.51-1.86.18q-1.2 0-2.22-.33-1.01-.32-1.75-.97t-1.15-1.61-.41-2.24q0-.72.24-1.43t.79-1.36q.54-.65 1.41-1.22t2.14-1 2.95-.69q1.68-.27 3.85-.33v-1.11q0-1.9-.82-2.82-.81-.91-2.34-.91-1.11 0-1.85.25-.73.26-1.28.59-.56.32-1.01.58t-1.01.26q-.48 0-.81-.25t-.54-.58m22.98 1.44v8.51q.78.94 1.69 1.33.92.39 1.93.39 1.06 0 1.9-.38t1.43-1.18q.6-.81.91-2.06.32-1.25.32-2.98 0-3.13-1.04-4.53-1.04-1.39-2.98-1.39-1.31 0-2.29.6t-1.87 1.69m0-14.06v10.84q1.15-1.2 2.54-1.91 1.4-.72 3.19-.72 1.65 0 2.97.65 1.33.65 2.26 1.86t1.43 2.93.5 3.87q0 2.31-.57 4.2t-1.64 3.23q-1.06 1.34-2.56 2.08t-3.33.74q-.89 0-1.61-.18-.72-.17-1.33-.49-.61-.31-1.12-.77-.51-.45-.97-1l-.21 1.27q-.11.48-.37.69-.27.2-.74.2h-3.01v-27.49zm30.01 8.51h3.66l-10.34 24.2q-.21.48-.53.73t-.99.25h-3.4l3.55-7.62-7.68-17.56h4.02q.53 0 .84.26.3.26.45.59l4.03 9.84q.21.5.35 1 .13.5.26 1.02.17-.52.34-1.03.16-.51.37-1.01l3.81-9.82q.15-.37.49-.61t.77-.24m34.33-7.77v4.09h-8.06v22.66h-4.98v-22.66h-8.07v-4.09zm11.19 7.47q2.11 0 3.84.69 1.73.68 2.96 1.94t1.9 3.07.67 4.05q0 2.26-.67 4.07-.67 1.82-1.9 3.09-1.23 1.28-2.96 1.96-1.73.69-3.84.69-2.12 0-3.86-.69-1.74-.68-2.97-1.96-1.23-1.27-1.91-3.09-.67-1.81-.67-4.07 0-2.24.67-4.05.68-1.81 1.91-3.07t2.97-1.94q1.74-.69 3.86-.69m0 16.04q2.37 0 3.51-1.59t1.14-4.66-1.14-4.68-3.51-1.61q-2.4 0-3.56 1.62-1.15 1.62-1.15 4.67t1.15 4.65q1.16 1.6 3.56 1.6m21.26-16.04q2.11 0 3.84.69 1.73.68 2.96 1.94t1.9 3.07q.66 1.81.66 4.05 0 2.26-.66 4.07-.67 1.82-1.9 3.09-1.23 1.28-2.96 1.96-1.73.69-3.84.69-2.13 0-3.87-.69-1.73-.68-2.97-1.96-1.23-1.27-1.9-3.09-.68-1.81-.68-4.07 0-2.24.68-4.05.67-1.81 1.9-3.07 1.24-1.26 2.97-1.94 1.74-.69 3.87-.69m0 16.04q2.37 0 3.51-1.59 1.13-1.59 1.13-4.66t-1.13-4.68q-1.14-1.61-3.51-1.61-2.4 0-3.56 1.62t-1.16 4.67 1.16 4.65 3.56 1.6m19.19 3.54q-2.48 0-3.81-1.4-1.32-1.4-1.32-3.86v-10.6h-1.94q-.37 0-.63-.24t-.26-.72v-1.81l3.05-.5.96-5.18q.1-.37.36-.58.26-.2.66-.2h2.37v5.98h5.07v3.25h-5.07v10.29q0 .89.43 1.39.44.49 1.2.49.42 0 .71-.1t.5-.21.38-.21.33-.1q.21 0 .34.1.12.1.27.3l1.37 2.22q-1 .84-2.29 1.26-1.3.43-2.68.43m12-27.79v10.54q1.11-1.03 2.44-1.68 1.34-.65 3.13-.65 1.55 0 2.76.53 1.2.53 2 1.48.81.95 1.22 2.28.42 1.32.42 2.91v12.08h-4.57v-12.08q0-1.74-.79-2.69-.8-.95-2.43-.95-1.18 0-2.22.53-1.03.54-1.96 1.46v13.73h-4.57v-27.49zm20.87 14.06v8.51q.78.94 1.69 1.33.92.39 1.94.39 1.05 0 1.89-.38t1.44-1.18q.59-.81.9-2.06.32-1.25.32-2.98 0-3.13-1.04-4.53-1.04-1.39-2.98-1.39-1.31 0-2.29.6t-1.87 1.69m0-14.06v10.84q1.15-1.2 2.54-1.91 1.4-.72 3.19-.72 1.65 0 2.97.65 1.33.65 2.26 1.86t1.43 2.93.5 3.87q0 2.31-.57 4.2t-1.64 3.23q-1.06 1.34-2.56 2.08t-3.33.74q-.89 0-1.61-.18-.72-.17-1.33-.49-.61-.31-1.12-.77-.51-.45-.97-1l-.2 1.27q-.12.48-.38.69-.27.2-.73.2h-3.02v-27.49zm20.46 9.66.28 2.14q.89-1.7 2.11-2.67t2.88-.97q1.32 0 2.11.57l-.29 3.42q-.1.34-.27.48-.18.13-.47.13-.28 0-.83-.09-.54-.09-1.06-.09-.76 0-1.35.22t-1.07.64q-.47.42-.83 1.01t-.67 1.35v11.69h-4.57v-18.98h2.68q.7 0 .98.25t.37.9m21.55-1.15h4.57v18.98h-2.79q-.91 0-1.15-.83l-.31-1.52q-1.17 1.18-2.57 1.92-1.41.73-3.32.73-1.55 0-2.74-.53-1.2-.53-2.01-1.49t-1.23-2.29q-.42-1.32-.42-2.91v-12.06h4.57v12.06q0 1.74.81 2.69.8.96 2.41.96 1.19 0 2.22-.53 1.04-.53 1.96-1.45zm21.7 2.05-1.03 1.65q-.19.3-.39.42t-.52.12q-.33 0-.71-.19-.38-.18-.88-.42-.5-.23-1.14-.41-.64-.19-1.51-.19-1.35 0-2.11.58-.77.57-.77 1.49 0 .62.4 1.03.39.42 1.05.73.66.32 1.49.57t1.69.54q.86.3 1.7.68.83.38 1.48.96.66.58 1.06 1.4.4.81.4 1.96 0 1.37-.49 2.52-.49 1.16-1.46 2-.96.84-2.37 1.31-1.42.48-3.27.48-.98 0-1.91-.18-.94-.18-1.8-.49t-1.59-.74-1.28-.92l1.05-1.74q.2-.32.48-.48.28-.17.7-.17.43 0 .81.24t.88.52q.5.27 1.17.51.68.25 1.71.25.82 0 1.4-.2.58-.19.96-.51.38-.31.56-.73.17-.41.17-.86 0-.66-.39-1.09-.4-.43-1.06-.74t-1.5-.56-1.72-.55-1.72-.69q-.84-.4-1.5-1.01-.65-.61-1.05-1.5t-.4-2.15q0-1.16.46-2.22.47-1.05 1.36-1.84.9-.78 2.24-1.26 1.34-.47 3.1-.47 1.96 0 3.57.65t2.68 1.7m8.22-10.56v10.54q1.11-1.03 2.44-1.68t3.13-.65q1.55 0 2.75.53t2.01 1.48q.8.95 1.22 2.28.42 1.32.42 2.91v12.08h-4.57v-12.08q0-1.74-.8-2.69-.79-.95-2.42-.95-1.19 0-2.22.53-1.04.54-1.96 1.46v13.73h-4.57v-27.49z"/></svg>