<svg xmlns="http://www.w3.org/2000/svg" width="600" height="600" viewBox="0 0 600 600"><rect width="100%" height="100%" fill="#16161f"/><path fill="#c9a84c" d="M148.66 276.145v5.96h-11.77v33.08h-7.26v-33.08h-11.77v-5.96zm9.34 22h12.59q0-1.29-.37-2.44-.36-1.15-1.09-2.01-.73-.87-1.85-1.37t-2.61-.5q-2.89 0-4.55 1.65t-2.12 4.67m17.01 4.03h-17.14q.16 2.13.76 3.68.59 1.55 1.56 2.57.97 1.01 2.31 1.51t2.96.5 2.79-.38q1.18-.38 2.05-.84.88-.46 1.54-.83.66-.38 1.28-.38.84 0 1.25.62l1.91 2.43q-1.1 1.3-2.48 2.17-1.38.88-2.88 1.41-1.49.52-3.05.74-1.55.21-3.01.21-2.89 0-5.37-.95-2.48-.96-4.32-2.84-1.84-1.87-2.89-4.64t-1.05-6.42q0-2.83.92-5.33.91-2.49 2.63-4.34 1.71-1.85 4.18-2.93t5.58-1.08q2.62 0 4.83.83 2.22.84 3.81 2.45 1.59 1.6 2.5 3.94.9 2.33.9 5.33 0 1.51-.32 2.04-.33.53-1.25.53m11.83-4.03h12.58q0-1.29-.36-2.44-.37-1.15-1.1-2.01-.72-.87-1.85-1.37-1.12-.5-2.6-.5-2.89 0-4.55 1.65t-2.12 4.67m17.01 4.03h-17.14q.16 2.13.75 3.68.6 1.55 1.57 2.57.97 1.01 2.31 1.51 1.33.5 2.95.5t2.8-.38q1.17-.38 2.05-.84t1.54-.83q.66-.38 1.28-.38.84 0 1.24.62l1.92 2.43q-1.11 1.3-2.48 2.17-1.38.88-2.88 1.41-1.5.52-3.05.74-1.55.21-3.01.21-2.89 0-5.37-.95-2.49-.96-4.32-2.84-1.84-1.87-2.89-4.64-1.06-2.77-1.06-6.42 0-2.83.92-5.33.92-2.49 2.63-4.34 1.72-1.85 4.19-2.93t5.57-1.08q2.62 0 4.84.83 2.21.84 3.8 2.45 1.6 1.6 2.5 3.94.91 2.33.91 5.33 0 1.51-.33 2.04-.32.53-1.24.53m15.8 13.44q-3.62 0-5.55-2.04t-1.93-5.63v-15.47h-2.84q-.54 0-.92-.35-.37-.35-.37-1.05v-2.65l4.45-.73 1.4-7.56q.14-.54.52-.83.38-.3.97-.3h3.46v8.72h7.39v4.75h-7.39v15.01q0 1.3.63 2.03t1.74.73q.62 0 1.04-.15t.73-.31.55-.31q.25-.15.49-.15.3 0 .49.15.18.15.4.45l2 3.24q-1.46 1.21-3.35 1.83t-3.91.62m17.52-40.55v15.39q1.62-1.51 3.56-2.46 1.95-.94 4.57-.94 2.26 0 4.02.77 1.75.77 2.93 2.16 1.17 1.39 1.78 3.32t.61 4.25v17.63h-6.67v-17.63q0-2.54-1.16-3.93t-3.54-1.39q-1.73 0-3.24.78-1.51.79-2.86 2.14v20.03h-6.67v-40.12zm24 12.42h6.7v27.7h-6.7zm7.62-8.07q0 .86-.36 1.61-.35.76-.93 1.33-.58.56-1.36.9t-1.67.34q-.87 0-1.64-.34t-1.33-.9q-.57-.57-.91-1.33-.34-.75-.34-1.61 0-.9.34-1.68t.91-1.35q.56-.57 1.33-.9.77-.34 1.64-.34.89 0 1.67.34.78.33 1.36.9t.93 1.35q.36.78.36 1.68m11.66 9.28.46 2.19q.84-.84 1.77-1.55.93-.72 1.97-1.22t2.23-.78q1.18-.28 2.59-.28 2.27 0 4.02.77 1.76.77 2.93 2.16t1.78 3.32.61 4.25v17.63h-6.67v-17.63q0-2.54-1.16-3.93t-3.54-1.39q-1.73 0-3.24.78-1.51.79-2.86 2.14v20.03h-6.67v-27.7h4.08q1.29 0 1.7 1.21m34.8 11.96q1.24 0 2.16-.33.92-.34 1.53-.93.61-.6.92-1.44.31-.83.31-1.83 0-2.05-1.23-3.26-1.23-1.2-3.69-1.2-2.45 0-3.68 1.2-1.23 1.21-1.23 3.26 0 .97.31 1.81.31.83.92 1.44.6.61 1.54.95.93.33 2.14.33m7.54 15.77q0-.81-.49-1.32t-1.32-.8q-.84-.28-1.96-.42-1.12-.13-2.38-.2-1.25-.07-2.59-.12t-2.6-.22q-1.11.62-1.8 1.46t-.69 1.95q0 .72.37 1.36.36.63 1.16 1.09.79.46 2.06.72t3.11.26q1.86 0 3.21-.29 1.35-.28 2.23-.78t1.28-1.19q.41-.69.41-1.5m-1.33-28h7.97v2.49q0 1.18-1.43 1.45l-2.49.46q.57 1.43.57 3.14 0 2.05-.82 3.71-.83 1.66-2.29 2.82-1.45 1.16-3.44 1.8-1.98.63-4.28.63-.81 0-1.56-.08-.76-.08-1.49-.22-1.29.79-1.29 1.76 0 .84.76 1.23.77.39 2.04.55t2.89.2 3.32.18q1.7.13 3.32.47t2.89 1.07 2.04 1.98q.77 1.26.77 3.23 0 1.83-.9 3.56-.91 1.73-2.62 3.08-1.72 1.35-4.21 2.17-2.5.83-5.69.83-3.13 0-5.45-.61t-3.86-1.62-2.3-2.34q-.75-1.32-.75-2.75 0-1.94 1.17-3.25 1.18-1.31 3.23-2.1-1.11-.56-1.76-1.51-.65-.94-.65-2.48 0-.62.23-1.28.23-.67.68-1.31.44-.65 1.12-1.23.67-.58 1.59-1.04-2.1-1.14-3.31-3.03-1.2-1.89-1.2-4.42 0-2.06.83-3.72.82-1.66 2.29-2.83 1.47-1.18 3.48-1.8 2.02-.62 4.39-.62 1.78 0 3.35.37 1.57.36 2.86 1.06m33.62 6.29h4.53q2.06 0 3.58-.51 1.53-.51 2.51-1.42.99-.9 1.47-2.14.49-1.25.49-2.73 0-2.97-1.96-4.56-1.96-1.6-5.98-1.6h-4.64zm13.44 6.05 9.78 14.42h-6.56q-1.87 0-2.7-1.46l-8.21-12.5q-.46-.7-1.01-1-.56-.29-1.64-.29h-3.1v15.25h-7.27v-39.04h11.91q3.97 0 6.82.82t4.67 2.31 2.69 3.55q.86 2.07.86 4.55 0 1.97-.58 3.73-.58 1.75-1.67 3.18-1.1 1.43-2.7 2.51-1.61 1.08-3.66 1.7.7.41 1.29.96.6.56 1.08 1.31m18.23-2.62h12.58q0-1.29-.36-2.44-.37-1.15-1.1-2.01-.73-.87-1.85-1.37t-2.6-.5q-2.89 0-4.55 1.65t-2.12 4.67m17.01 4.03h-17.15q.17 2.13.76 3.68t1.57 2.57q.97 1.01 2.3 1.51 1.34.5 2.96.5t2.79-.38q1.18-.38 2.06-.84.87-.46 1.54-.83.66-.38 1.28-.38.84 0 1.24.62l1.92 2.43q-1.11 1.3-2.49 2.17-1.37.88-2.87 1.41-1.5.52-3.05.74-1.56.21-3.01.21-2.89 0-5.38-.95-2.48-.96-4.32-2.84-1.83-1.87-2.89-4.64-1.05-2.77-1.05-6.42 0-2.83.92-5.33.92-2.49 2.63-4.34 1.72-1.85 4.19-2.93t5.57-1.08q2.62 0 4.84.83 2.21.84 3.8 2.45 1.6 1.6 2.5 3.94.9 2.33.9 5.33 0 1.51-.32 2.04t-1.24.53m6.64-27.11h6.67v40.12h-6.67zm13.55 12.42h6.7v27.7h-6.7zm7.62-8.07q0 .86-.35 1.61-.35.76-.93 1.33-.58.56-1.37.9-.78.34-1.67.34-.87 0-1.64-.34-.76-.34-1.33-.9-.57-.57-.91-1.33-.33-.75-.33-1.61 0-.9.33-1.68.34-.78.91-1.35t1.33-.9q.77-.34 1.64-.34.89 0 1.67.34.79.33 1.37.9t.93 1.35.35 1.68m11.15 18.73h12.58q0-1.29-.36-2.44-.37-1.15-1.1-2.01-.73-.87-1.85-1.37t-2.6-.5q-2.89 0-4.55 1.65t-2.12 4.67m17.01 4.03h-17.15q.17 2.13.76 3.68t1.57 2.57q.97 1.01 2.3 1.51 1.34.5 2.96.5t2.8-.38q1.17-.38 2.05-.84t1.54-.83q.66-.38 1.28-.38.84 0 1.24.62l1.92 2.43q-1.11 1.3-2.49 2.17-1.37.88-2.87 1.41-1.5.52-3.05.74-1.55.21-3.01.21-2.89 0-5.38-.95-2.48-.96-4.32-2.84-1.83-1.87-2.88-4.64-1.06-2.77-1.06-6.42 0-2.83.92-5.33.92-2.49 2.63-4.34 1.72-1.85 4.19-2.93t5.57-1.08q2.62 0 4.84.83 2.21.84 3.8 2.45 1.6 1.6 2.5 3.94.91 2.33.91 5.33 0 1.51-.33 2.04-.32.53-1.24.53m15.17 13.01h-6.67v-22.68l-2.4-.38q-.78-.16-1.25-.55-.48-.39-.48-1.12v-2.73h4.13v-2.05q0-2.38.72-4.27t2.05-3.21q1.34-1.32 3.26-2.03 1.91-.7 4.32-.7 1.91 0 3.56.52l-.14 3.34q-.02.38-.21.61t-.5.35-.72.16q-.4.04-.86.04-1.19 0-2.12.26t-1.58.89q-.65.64-.99 1.68-.33 1.04-.33 2.58v1.83h7.21v4.75h-7z"/></svg>